# xmcd
#
# Track frame offsets: 
#        150
#        22514
#        60365
#        75064
#        95098
#        111006
#        125679
#        143764
#        157638
#        196013
#        214913
#        255224
#
# Disc length: 3603 seconds
#
# Revision: 0
# Processed by: cddbd v1.5.2PL0 Copyright (c) Steve Scherf et al.
# Submitted via: ExactAudioCopy v0.90b4
#
DISCID=810e110c
DTITLE=The Charles White Band - A look back...20 year anniversary spec
DTITLE=ial!
DYEAR=2010
DGENRE=Blues - Funk
TTITLE0=They Kicked Me Out of Texas
TTITLE1=Shotgun (medley)
TTITLE2=Pink Champagne
TTITLE3=Paid My Dues
TTITLE4=Can't Stop Loving My Baby
TTITLE5=Moonlight
TTITLE6=The Thrill is Gone
TTITLE7=Don't Make Me Wait
TTITLE8=James Brown (medley)
TTITLE9=Ain't No Sunshine
TTITLE10=Goodtime Charlie
TTITLE11=Hey Bartender
EXTD=
EXTT0=
EXTT1=
EXTT2=
EXTT3=
EXTT4=
EXTT5=
EXTT6=
EXTT7=
EXTT8=
EXTT9=
EXTT10=
EXTT11=
PLAYORDER=
